<?xml version="1.0" encoding="utf-8"?>
<!-- Svg Vector Icons : http://www.onlinewebfonts.com/icon -->
<!DOCTYPE svg PUBLIC "-//W3C//DTD SVG 1.1//EN" "http://www.w3.org/Graphics/SVG/1.1/DTD/svg11.dtd">
<svg version="1.1" xmlns="http://www.w3.org/2000/svg" xmlns:xlink="http://www.w3.org/1999/xlink" x="0px" y="0px" viewBox="0 0 1000 1000" enable-background="new 0 0 1000 1000" xml:space="preserve">
<metadata> Svg Vector Icons : http://www.onlinewebfonts.com/icon </metadata>
<g><g transform="translate(0.000000,511.000000) scale(0.100000,-0.100000)"><path d="M2022.1,4153.5c-160-43.5-260.8-102.7-381.2-225.2c-130.4-128.4-207.4-280.5-235.1-458.3c-11.9-69.1-21.7-432.6-21.7-811.9v-687.4h-171.9c-96.8,0-233.1-13.8-308.2-29.6c-276.6-57.3-568.9-270.6-693.4-501.8C96.1,1225.9,100,1312.9,100-994.4c0-2058.4,2-2131.5,39.5-2252c102.7-337.8,406.9-602.5,780.3-679.6c207.4-43.5,6331.2-43.5,6536.7,0c381.3,81,677.6,335.8,782.3,675.6c37.5,120.5,39.5,183.7,39.5,902.8v772.4L9060.5-945c428.7,345.7,794.1,649.9,811.9,677.6c61.2,90.9,25.7,179.8-160,414.8c-185.7,231.1-246.9,282.5-337.8,282.5c-75.1,0-63.2,7.9-616.3-438.5c-252.9-205.4-464.2-371.4-470.1-371.4c-5.9,0-9.9,865.2-9.9,1924.1c0,1870.7-2,1928-39.5,2052.5c-73.1,237.1-256.8,430.6-513.6,539.3c-86.9,35.6-177.8,37.5-2844.6,41.5C2549.5,4181.2,2109,4177.2,2022.1,4153.5z M7681.7,3815.7c110.6-55.3,177.8-124.4,246.9-252.9l43.5-81l5.9-2056.4l4-2056.4l-691.4-559c-379.3-308.2-691.4-565-691.4-572.9c0-11.9,493.9-636.1,551.2-695.4c7.9-9.9,195.6,130.4,416.8,310.1l405,325.9l5.9-616.3c5.9-709.2-2-758.6-140.2-928.5c-63.2-77-124.5-124.4-239-183.7l-156-79l-2961.2-5.9l-2959.2-3.9l47.4,92.9c25.7,53.3,63.2,144.2,83,203.5c35.5,102.7,37.5,262.7,47.4,3476.8l9.9,3368.1l43.5,79c55.3,104.7,154.1,195.6,262.7,245c88.9,39.5,116.5,41.5,2826.8,41.5h2736L7681.7,3815.7z"/><path d="M3859.2,3035.4c-128.4-49.4-258.8-173.8-322-304.2c-71.1-148.2-69.1-355.6,5.9-507.7c108.7-221.2,312.1-341.7,578.8-339.8c258.8,0,497.8,162,572.9,391.1c96.8,286.4-13.8,586.7-268.7,730.9c-92.8,51.4-128.4,61.2-286.4,65.2C3997.5,3076.9,3942.2,3069,3859.2,3035.4z M4244.4,2762.8c144.2-73.1,205.4-282.5,126.4-436.6c-104.7-211.4-406.9-211.4-521.5,0c-51.3,92.8-41.5,264.7,19.8,349.7C3954.1,2794.4,4110.1,2832,4244.4,2762.8z"/><path d="M6441.1,3023.6c-136.3-69.1-197.5-165.9-197.5-314.1c0-189.6,104.7-278.5,424.7-363.5c171.9-45.4,207.4-67.2,207.4-118.5c0-65.2-51.4-84.9-185.7-75.1c-86.9,7.9-158,27.7-229.2,67.2l-102.7,55.3l-84.9-96.8c-100.7-116.5-94.8-132.4,90.9-217.3c320-142.2,685.5-83,792.2,128.4c19.7,39.5,35.5,112.6,35.5,169.9c0,189.6-104.7,278.5-424.7,363.5c-173.8,45.4-207.4,65.2-207.4,120.5c0,90.9,183.7,98.8,355.6,13.8l96.8-47.4l73.1,104.7c83,120.5,79,136.3-67.1,205.4c-69.1,31.6-140.3,45.4-280.5,51.4C6561.6,3078.9,6543.8,3076.9,6441.1,3023.6z"/><path d="M2687.8,2918.9v-138.3h138.3h138.3v-235.1c0-231.1-17.8-331.9-65.2-361.5c-49.4-31.6-150.1-15.8-205.4,31.6l-55.3,47.4l-102.7-94.8l-102.7-94.8l53.3-53.3c183.7-187.7,555.1-179.8,703.3,15.8c75.1,96.8,88.9,205.5,90.9,632.1v389.2h-296.3h-296.3V2918.9z"/><path d="M4959.6,2472.4v-586.7l381.2,9.9c355.6,7.9,389.2,11.8,480,57.3c223.2,110.6,243,393.1,33.6,515.6l-69.1,41.5l51.4,39.5c167.9,122.5,140.3,381.3-53.3,468.2c-73.1,33.6-130.4,39.5-452.4,39.5h-371.4V2472.4z M5593.7,2780.6c45.4-25.7,49.4-104.7,5.9-146.2c-21.7-23.7-71.1-31.6-177.8-31.6h-146.2v98.8v98.8h140.3C5492.9,2800.4,5571.9,2790.5,5593.7,2780.6z M5654.9,2328.2c45.4-57.3,43.4-65.2-2-122.5c-33.6-41.5-57.3-47.4-207.4-55.3l-169.9-5.9V2267v124.4l171.9-9.9C5593.7,2373.7,5623.3,2365.8,5654.9,2328.2z"/><path d="M2340.1,1075.8c-5.9-15.8-7.9-106.7-3.9-203.5l5.9-175.8l717.1-5.9l715.1-4v207.4v207.4h-711.2C2488.3,1101.5,2348,1095.6,2340.1,1075.8z"/><path d="M4129.9,894.1V686.7H4841h711.1v207.4v207.4H4841h-711.2V894.1z"/><path d="M5907.8-431.4c0-1483.5,2-1530.9,35.6-1505.3c21.7,13.8,339.8,270.6,711.2,568.9l675.6,543.2v964v962h-711.2h-711.2V-431.4z"/><path d="M2346.1-58.1c-7.9-5.9-13.8-94.8-13.8-193.6c0-130.4,7.9-189.7,27.7-205.5c17.8-15.8,223.2-21.7,715.1-17.8l689.4,5.9v207.4v207.4l-703.3,5.9C2676-46.2,2354-50.2,2346.1-58.1z"/><path d="M4133.8-255.6l5.9-213.3H4841h701.3v207.4v207.4l-707.2,5.9l-707.2,4L4133.8-255.6z"/><path d="M2354-1217.7c-15.8-17.8-21.7-92.8-17.8-211.4l5.9-185.7h711.2h711.2l5.9,195.6c4,144.2-2,201.5-19.8,213.4c-13.8,7.9-329.9,15.8-699.3,15.8C2496.2-1190,2371.8-1194,2354-1217.7z"/><path d="M4143.7-1203.8c-7.9-5.9-13.8-104.7-13.8-217.3v-203.5l707.2,4l705.2,5.9v207.4v207.4l-693.4,5.9C4467.7-1192,4151.6-1195.9,4143.7-1203.8z"/><path d="M6362.1-1954.5c-33.6-41.5-114.6-181.8-177.8-312.1c-237.1-482-203.5-596.6,162-543.2c302.2,43.5,677.6,171.9,663.7,227.2c-7.9,37.5-547.2,701.3-568.9,701.3C6431.2-1881.4,6395.7-1915,6362.1-1954.5z"/><path d="M2340.1-2381.2c-5.9-15.8-7.9-106.7-3.9-203.5l5.9-175.8l717.1-5.9l715.1-4v207.4v207.4h-711.2C2488.3-2355.5,2348-2361.4,2340.1-2381.2z"/><path d="M4129.9-2562.9v-207.4H4841h711.1v207.4v207.4H4841h-711.2V-2562.9z"/></g></g>
</svg>