<?xml version="1.0" encoding="utf-8"?>
<!-- Svg Vector Icons : http://www.onlinewebfonts.com/icon -->
<!DOCTYPE svg PUBLIC "-//W3C//DTD SVG 1.1//EN" "http://www.w3.org/Graphics/SVG/1.1/DTD/svg11.dtd">
<svg version="1.1" xmlns="http://www.w3.org/2000/svg" xmlns:xlink="http://www.w3.org/1999/xlink" x="0px" y="0px" viewBox="0 0 1000 1000" enable-background="new 0 0 1000 1000" xml:space="preserve">
<metadata> Svg Vector Icons : http://www.onlinewebfonts.com/icon </metadata>
<g><path d="M984.9,132.5c0-24.9-16.1-60.3-92.9-87.7c-53.3-19-123.8-29.5-198.4-29.5S548.4,25.7,495.1,44.7c-76.8,27.5-92.9,62.9-92.9,87.7c0,3.8,0.4,7.9,1.3,12.2c-0.8,2.3-1.3,4.6-1.3,7.2v116.1c0,3.8,0.4,7.9,1.3,12.2c-0.8,2.2-1.3,4.6-1.3,7.2v62.9c-30.3-3.9-62.5-6-95.6-6c-74.7,0-145.1,10.5-198.4,29.5c-76.8,27.4-92.9,62.8-92.9,87.7c0,3.8,0.4,7.9,1.3,12.2c-0.8,2.2-1.3,4.6-1.3,7.2v116.1c0,3.8,0.4,7.9,1.3,12.2c-0.8,2.3-1.3,4.6-1.3,7.2v116.1c0,3.8,0.4,7.9,1.3,12.2c-0.8,2.3-1.3,4.6-1.3,7.1v116.1c0,24.9,16.1,60.3,92.9,87.7c53.3,19,123.8,29.5,198.4,29.5c74.7,0,145.1-10.5,198.4-29.5c76.8-27.5,92.9-62.9,92.9-87.7v-82.2c30.5,4,62.5,6,95.6,6c74.7,0,145.1-10.5,198.4-29.5c76.8-27.5,92.9-62.9,92.9-87.8V558c0-2.5-0.5-4.9-1.3-7.2c1-4.3,1.3-8.3,1.3-12.2V422.6c0-2.5-0.5-4.9-1.3-7.2c1-4.2,1.3-8.3,1.3-12.2v-116c0-2.5-0.5-5-1.3-7.2c1-4.3,1.3-8.3,1.3-12.2V151.8c0-2.5-0.5-4.9-1.3-7.2C984.5,140.3,984.9,136.3,984.9,132.5L984.9,132.5L984.9,132.5L984.9,132.5z M943.8,538.7c0,11.8-17.2,31.7-65.7,49.1c-49,17.5-114.6,27.1-184.6,27.1c-33.6,0-66-2.2-96.8-6.6c0.9-4.1,1.2-7.9,1.2-11.6v-82.2c30.5,4,62.5,6,95.6,6c74.7,0,145.1-10.5,198.4-29.5c21.9-7.9,38.9-16.3,51.9-25L943.8,538.7L943.8,538.7L943.8,538.7L943.8,538.7z M556.9,524.1v72.7c0,11.8-17.2,31.7-65.7,49.1c-49,17.5-114.6,27.1-184.6,27.1c-70.1,0-135.6-9.6-184.6-27.1c-48.5-17.3-65.7-37.3-65.7-49.1v-72.7c13,8.7,30,17.2,51.9,25c53.3,19,123.8,29.5,198.4,29.5c74.7,0,145.1-10.5,198.4-29.5C526.9,541.3,543.8,532.7,556.9,524.1L556.9,524.1L556.9,524.1L556.9,524.1z M56.3,659.5c13,8.7,30,17.1,51.9,24.9c53.3,19,123.8,29.6,198.4,29.6c74.7,0,145.1-10.5,198.4-29.6c21.9-7.8,38.9-16.3,51.9-24.9v72.7c0,11.8-17.2,31.7-65.7,49c-49,17.6-114.6,27.2-184.6,27.2c-70.1,0-135.6-9.6-184.6-27.2c-48.5-17.3-65.7-37.2-65.7-49L56.3,659.5L56.3,659.5L56.3,659.5L56.3,659.5z M943.8,267.9c0,11.8-17.2,31.8-65.7,49.1c-49,17.5-114.6,27.2-184.6,27.2c-70.1,0-135.7-9.6-184.6-27.2c-48.5-17.3-65.7-37.2-65.7-49.1v-72.7c13.1,8.7,30,17.1,51.9,24.9c53.3,19,123.8,29.6,198.4,29.6c74.7,0,145.1-10.5,198.4-29.6c21.9-7.8,38.9-16.2,51.9-24.9L943.8,267.9L943.8,267.9L943.8,267.9L943.8,267.9z M508.8,83.4c49-17.5,114.6-27.1,184.6-27.1c70.1,0,135.6,9.6,184.6,27.1c48.5,17.3,65.7,37.2,65.7,49.1c0,11.8-17.2,31.7-65.7,49.1c-49,17.5-114.6,27.2-184.6,27.2c-70.1,0-135.7-9.6-184.6-27.2c-48.5-17.3-65.7-37.3-65.7-49.1C443.2,120.6,460.4,100.7,508.8,83.4L508.8,83.4L508.8,83.4L508.8,83.4z M443.2,330.6c13.1,8.7,30,17.2,51.9,25c53.3,19,123.8,29.5,198.4,29.5c74.7,0,145.1-10.5,198.4-29.5c21.9-7.8,38.9-16.3,51.9-25v72.7c0,11.8-17.2,31.8-65.7,49.1c-49,17.5-114.6,27.1-184.6,27.1c-33.1,0-66.1-2.3-96.8-6.6c0.9-4.1,1.2-7.9,1.2-11.6c0-24.9-16.1-60.3-92.9-87.8c-18.7-6.6-39.5-12.3-61.8-16.8V330.6L443.2,330.6L443.2,330.6L443.2,330.6z M122,412.2c49-17.5,114.6-27.1,184.6-27.1c70.1,0,135.7,9.6,184.6,27.1c48.5,17.3,65.7,37.3,65.7,49.1c0,11.8-17.2,31.8-65.7,49.1c-49,17.5-114.6,27.1-184.6,27.1c-70.1,0-135.6-9.6-184.6-27.1c-48.5-17.3-65.7-37.2-65.7-49.1C56.3,449.5,73.5,429.6,122,412.2L122,412.2L122,412.2L122,412.2z M491.2,916.7c-49,17.5-114.6,27.1-184.6,27.1c-70.1,0-135.6-9.6-184.6-27.1c-48.5-17.3-65.7-37.2-65.7-49.1V795c13,8.7,30,17.1,51.9,24.9c53.3,19,123.8,29.5,198.4,29.5c74.7,0,145.1-10.5,198.4-29.5c21.9-7.8,38.9-16.3,51.9-25v72.7C556.9,879.4,539.7,899.4,491.2,916.7L491.2,916.7L491.2,916.7L491.2,916.7z M878.1,723.2c-49,17.5-114.6,27.1-184.6,27.1c-33.7,0-66.1-2.2-96.8-6.5c0.9-4.1,1.2-8,1.2-11.6v-82.2c30.6,4,62.6,6,95.6,6c74.7,0,145.1-10.5,198.4-29.6c21.9-7.8,38.9-16.2,51.9-24.9V674C943.8,686,926.6,705.9,878.1,723.2L878.1,723.2L878.1,723.2L878.1,723.2z"/><path d="M306.6,990c-75.4,0-146.5-10.6-200.2-29.8C26.7,931.8,10,894.1,10,867.6V751.5c0-2.4,0.4-5,1.1-7.4c-0.8-3.9-1.1-7.9-1.1-11.9V616c0-2.5,0.4-4.9,1.1-7.5c-0.8-3.8-1.1-7.8-1.1-11.8V480.6c0-2.5,0.4-5,1.1-7.5c-0.8-3.8-1.1-7.9-1.1-11.9c0-26.6,16.7-64.2,96.4-92.6c53.7-19.2,124.8-29.8,200.2-29.8c31,0,61.4,1.8,90.4,5.3v-56.9c0-2.6,0.4-5.1,1.1-7.5c-0.7-3.8-1.1-7.9-1.1-11.9v-116c0-2.5,0.4-5.1,1.1-7.5c-0.7-3.9-1.1-7.9-1.1-11.8c0-26.6,16.7-64.2,96.4-92.7C547.1,20.6,618.2,10,693.5,10c75.2,0,146.3,10.6,200.2,29.8c79.7,28.5,96.4,66.1,96.4,92.7c0,4-0.4,8-1.1,11.8c0.8,2.4,1.1,4.9,1.1,7.5v116.1c0,4.1-0.4,8-1.1,11.9c0.8,2.4,1.1,4.9,1.1,7.5v116.1c0,4.2-0.4,8-1.1,11.8c0.8,2.4,1.1,5,1.1,7.5v116.1c0,4-0.4,8-1.1,11.8c0.8,2.4,1.1,5,1.1,7.5v116c0,26.6-16.7,64.2-96.4,92.7c-53.8,19.2-124.9,29.8-200.2,29.8c-31,0-61.4-1.8-90.4-5.3v76.3c0,26.6-16.7,64.2-96.4,92.6C453,979.4,381.9,990,306.6,990z M306.6,349.3c-74.2,0-144,10.4-196.7,29.2c-74,26.4-89.5,59.6-89.5,82.8c0,3.8,0.4,7.5,1.2,11l0.3,1.5l-0.6,1.5c-0.7,1.8-1,3.6-1,5.4v116.1c0,3.8,0.4,7.4,1.2,11l0.3,1.5l-0.5,1.4c-0.7,1.9-1,3.7-1,5.4v116.1c0,3.7,0.4,7.5,1.2,11l0.3,1.5l-0.5,1.4c-0.7,1.9-1,3.7-1,5.4v116.1c0,23.2,15.5,56.4,89.5,82.8c52.7,18.9,122.5,29.2,196.7,29.2c74.2,0,144-10.4,196.7-29.2c74-26.4,89.5-59.6,89.5-82.8v-88.1l5.9,0.8c30.3,3.9,62.3,6,94.9,6c74.1,0,143.9-10.4,196.7-29.2c73.9-26.4,89.5-59.7,89.5-82.9V558c0-1.9-0.3-3.6-1-5.3l-0.6-1.5l0.3-1.6c0.8-3.5,1.2-7.2,1.2-11V422.6c0-1.9-0.3-3.6-1-5.3l-0.6-1.5l0.3-1.6c0.8-3.5,1.2-7.1,1.2-11v-116c0-1.9-0.3-3.6-1-5.3l-0.6-1.5l0.3-1.6c0.8-3.6,1.2-7.2,1.2-11V151.8c0-1.8-0.3-3.6-1-5.3l-0.6-1.5l0.3-1.6c0.8-3.5,1.2-7.2,1.2-11c0-23.2-15.5-56.4-89.5-82.9c-52.8-18.9-122.6-29.2-196.7-29.2S549.6,30.7,496.8,49.6c-74,26.5-89.5,59.7-89.5,82.9c0,3.7,0.4,7.4,1.2,11l0.3,1.5l-0.5,1.4c-0.7,1.8-1,3.6-1,5.3v116.1c0,3.8,0.4,7.5,1.2,11.1l0.3,1.5l-0.6,1.4c-0.7,1.7-1,3.5-1,5.3V356l-5.9-0.8C371.2,351.3,339.3,349.3,306.6,349.3z M306.6,949c-70.6,0-136.8-9.7-186.3-27.4c-51-18.2-69.2-39.8-69.2-54v-82.3l8.1,5.3c13.5,9,30.6,17.2,50.7,24.3c52.7,18.8,122.6,29.2,196.7,29.2s144-10.4,196.7-29.2c20.2-7.2,37.3-15.4,50.8-24.4l8.1-5.4v82.4c0,14.2-18.1,35.8-69.2,54C443.4,939.2,377.1,949,306.6,949z M61.5,804.3v63.2c0,7.6,13,26.6,62.2,44.2c48.4,17.3,113.4,26.8,182.9,26.8c69.4,0,134.4-9.5,182.9-26.8c49.2-17.6,62.3-36.6,62.3-44.2v-63.3c-12.7,7.5-27.8,14.4-45,20.5C453,844,381.9,854.6,306.6,854.6c-75.3,0-146.4-10.6-200.2-29.8C89.2,818.7,74.2,811.8,61.5,804.3z M306.6,813.6c-70.7,0-136.9-9.8-186.3-27.5c-51-18.2-69.2-39.8-69.2-54v-82.4l8.1,5.3c13.5,9,30.6,17.2,50.7,24.3c52.8,18.9,122.7,29.3,196.7,29.3s143.9-10.4,196.7-29.3c20.2-7.2,37.2-15.3,50.8-24.3l8-5.3v82.4c0,14.1-18.1,35.7-69.2,54C443.4,803.8,377.2,813.6,306.6,813.6z M61.5,668.9v63.3c0,7.6,13,26.6,62.2,44.1c48.4,17.3,113.4,26.8,182.9,26.8c69.5,0,134.4-9.5,182.9-26.8c49.2-17.6,62.3-36.6,62.3-44.1v-63.3c-12.8,7.5-27.8,14.4-45,20.5c-53.9,19.3-124.9,29.9-200.2,29.9c-75.2,0-146.3-10.6-200.2-29.9C89.2,683.2,74.2,676.4,61.5,668.9z M693.5,755.6c-33.8,0-66.6-2.2-97.5-6.6l-5.5-0.8l1.2-5.4c0.7-3.4,1.1-6.9,1.1-10.5v-88.2l5.9,0.8c30.4,3.9,62.4,6,94.9,6c74,0,143.9-10.4,196.7-29.3c20.3-7.2,37.3-15.4,50.7-24.4l8.1-5.4v82.3c0,14.1-18.1,35.7-69.1,54C830.4,745.8,764.2,755.6,693.5,755.6z M602.7,739.4c28.9,3.8,59.4,5.8,90.8,5.8c69.5,0,134.5-9.5,182.9-26.8c49.2-17.6,62.2-36.6,62.2-44.2v-63.3c-12.6,7.4-27.7,14.3-45,20.5c-53.9,19.3-125,29.9-200.2,29.9c-30.9,0-61.3-1.8-90.4-5.3v76.4C603.1,734.6,603,737,602.7,739.4z M306.6,678.2c-70.7,0-136.9-9.7-186.3-27.4c-51-18.3-69.2-39.8-69.2-54v-82.3l8.1,5.3c13.7,9.1,30.8,17.3,50.7,24.4c52.8,18.9,122.7,29.2,196.7,29.2s143.9-10.4,196.7-29.2c20-7.1,37.1-15.3,50.8-24.4l8-5.3v82.3c0,14.1-18.1,35.7-69.2,54C443.5,668.4,377.3,678.2,306.6,678.2z M61.5,533.5v63.3c0,7.6,13,26.6,62.3,44.2c48.3,17.3,113.3,26.8,182.8,26.8c69.5,0,134.5-9.5,182.9-26.8c49.2-17.6,62.3-36.6,62.3-44.2v-63.3c-12.8,7.5-27.9,14.4-45,20.5c-53.9,19.2-125,29.8-200.2,29.8c-75.1,0-146.2-10.6-200.2-29.8C89.3,547.9,74.2,541,61.5,533.5z M693.5,620.1c-33.6,0-66.4-2.3-97.5-6.6l-5.5-0.8l1.2-5.4c0.7-3.4,1.1-6.8,1.1-10.5v-88.2l5.9,0.8c30.1,3.9,62,6,94.9,6c74,0,143.8-10.4,196.7-29.2c20.2-7.3,37.3-15.4,50.7-24.4l8.1-5.3v82.4c0,14.1-18.1,35.7-69.1,54C830.2,610.4,764,620.1,693.5,620.1z M602.7,603.9c29,3.9,59.6,5.8,90.8,5.8c69.4,0,134.3-9.5,182.9-26.8c49.2-17.6,62.2-36.6,62.2-44.2v-63.3c-12.6,7.4-27.7,14.3-44.9,20.5c-54,19.2-125.1,29.8-200.2,29.8c-31.2,0-61.6-1.8-90.4-5.3v76.4C603.1,599.2,603,601.6,602.7,603.9z M306.6,542.7c-70.7,0-136.9-9.7-186.3-27.4c-51-18.2-69.2-39.8-69.2-54c0-14.2,18.1-35.7,69.1-54c49.5-17.7,115.7-27.5,186.4-27.5c70.7,0,136.9,9.8,186.4,27.5c51,18.3,69.2,39.8,69.2,54c0,14.2-18.1,35.7-69.2,54C443.5,533,377.3,542.7,306.6,542.7z M306.6,390.3c-69.5,0-134.4,9.5-182.9,26.8c-49.2,17.6-62.2,36.6-62.2,44.2c0,7.6,13,26.6,62.2,44.2c48.4,17.3,113.3,26.8,182.9,26.8c69.5,0,134.5-9.5,182.9-26.8c49.2-17.6,62.3-36.6,62.3-44.2c0-7.5-13-26.6-62.3-44.2C441,399.8,376.1,390.3,306.6,390.3z M693.5,484.7c-33.5,0-66.3-2.3-97.5-6.6l-5.5-0.8l1.2-5.4c0.7-3.4,1.1-6.8,1.1-10.5c0-23.2-15.5-56.4-89.5-82.9c-18.4-6.5-38.9-12.1-61.1-16.6l-4.2-0.8v-40.1l8.1,5.3c13.6,9.1,30.7,17.2,50.8,24.4c52.7,18.9,122.5,29.2,196.7,29.2s144-10.4,196.7-29.2c20.2-7.2,37.2-15.4,50.7-24.4l8.1-5.4v82.4c0,14.1-18.1,35.7-69.2,54C830.2,474.9,764,484.7,693.5,484.7z M602.7,468.5c29.2,3.8,59.7,5.8,90.8,5.8c69.4,0,134.3-9.5,182.9-26.8c49.2-17.6,62.2-36.6,62.2-44.2V340c-12.7,7.5-27.8,14.4-45,20.5c-53.7,19.2-124.8,29.8-200.2,29.8c-75.4,0-146.5-10.6-200.2-29.8c-17.1-6.1-32.2-13-45-20.5v12.6c21.1,4.4,40.7,9.8,58.4,16.1c79.6,28.5,96.4,66.1,96.4,92.7C603.1,463.8,603,466.1,602.7,468.5z M693.5,349.3c-70.7,0-136.9-9.8-186.4-27.5c-51-18.2-69.2-39.8-69.2-54v-82.3l8.1,5.3c13.5,9,30.6,17.2,50.8,24.4c52.8,18.9,122.7,29.3,196.7,29.3c74,0,143.9-10.4,196.7-29.3c20.3-7.2,37.3-15.4,50.7-24.4l8.1-5.4v82.4c0,14.2-18.1,35.8-69.2,54C830.4,339.5,764.2,349.3,693.5,349.3z M448.3,204.6v63.3c0,7.6,13,26.6,62.3,44.2c48.4,17.3,113.3,26.9,182.9,26.9c69.5,0,134.5-9.5,182.8-26.9c49.2-17.6,62.3-36.6,62.3-44.2v-63.3c-12.6,7.4-27.7,14.3-45,20.5c-53.9,19.3-125,29.9-200.2,29.9c-75.2,0-146.3-10.6-200.2-29.9C476.2,218.9,461.1,212,448.3,204.6z M693.5,213.9c-70.7,0-136.9-9.7-186.4-27.4c-51-18.3-69.2-39.8-69.2-54c0-14.2,18.1-35.8,69.2-54C556.6,60.7,622.8,51,693.5,51c70.6,0,136.8,9.7,186.3,27.4c51,18.2,69.2,39.8,69.2,54c0,14.1-18.1,35.7-69.1,54C830.3,204.1,764.1,213.9,693.5,213.9z M693.5,61.5c-69.5,0-134.5,9.5-182.9,26.8c-49.2,17.6-62.3,36.6-62.3,44.2s13,26.6,62.3,44.2c48.4,17.3,113.4,26.8,182.9,26.8c69.4,0,134.4-9.5,182.9-26.8c49.2-17.6,62.2-36.6,62.2-44.2c0-7.6-13-26.6-62.2-44.2C827.9,70.9,763,61.5,693.5,61.5z"/></g>
</svg>