<svg width="109.5199981689453px" height="81.44000091552735px" xmlns="http://www.w3.org/2000/svg" viewBox="195.24000091552733 34.279999542236325 109.5199981689453 81.44000091552735" style="background: rgba(0, 0, 0, 0);" preserveAspectRatio="xMidYMid"><defs><linearGradient id="editing-sticker-gradient" x1="0.20768898056442947" y1="0.5674853163031596" x2="0.7923110194355705" y2="0.43251468369684043"><stop offset="0" stop-color="#fd9"></stop><stop offset="1" stop-color="#9df"></stop></linearGradient><filter id="editing-sticker" x="-100%" y="-100%" width="300%" height="300%"><feMorphology operator="erode" radius="1" in="SourceAlpha" result="alpha-erode"></feMorphology><feConvolveMatrix order="3,3" divisor="1" kernelMatrix="0 1 0 1 1 1 0 1 0" in="alpha-erode" result="alpha-round"></feConvolveMatrix><feMorphology operator="dilate" radius="3.5" in="alpha-round" result="dilate-shadow"></feMorphology><feGaussianBlur in="dilate-shadow" stdDeviation="1.5" result="shadow"></feGaussianBlur><feFlood flood-color="#fff" result="flood-sticker"></feFlood><feComposite operator="in" in="flood-sticker" in2="alpha-round" result="comp-sticker"></feComposite><feMorphology operator="dilate" radius="3" in="comp-sticker" result="morph-sticker"></feMorphology><feConvolveMatrix order="3,3" divisor="1" kernelMatrix="0 1 0 1 1 1 0 1 0" in="morph-sticker" result="sticker"></feConvolveMatrix><feMerge><feMergeNode in="shadow"></feMergeNode><feMergeNode in="sticker"></feMergeNode><feMergeNode in="SourceGraphic"></feMergeNode></feMerge></filter></defs><g filter="url(#editing-sticker)"><g transform="translate(220.05441093444824, 92.74500274658203)"><path d="M-4.25 5.38L-4.25 5.38L-4.25 5.38Q-2.26 5.15-1.01 2.57L-1.01 2.57L-1.01 2.57Q0.27-0.04 1.44-6.04L1.44-6.04L5.23-25.74L13.69-25.74L9.91-6.04L9.91-6.04Q8.46 1.60 6.08 4.60L6.08 4.60L6.08 4.60Q4.84 6.16 3.26 6.79L3.26 6.79L3.26 6.79Q1.68 7.41-0.04 7.41L-0.04 7.41L-0.04 7.41Q-1.75 7.41-2.87 6.79L-2.87 6.79L-2.87 6.79Q-3.98 6.16-4.25 5.38ZM23.05 0.78L23.05 0.78L23.05 0.78Q14.47 0.78 14.47-7.29L14.47-7.29L14.47-7.29Q14.47-13.03 17.63-16.73L17.63-16.73L17.63-16.73Q20.98-20.67 26.79-20.67L26.79-20.67L26.79-20.67Q31.00-20.67 33.15-18.72L33.15-18.72L33.15-18.72Q35.30-16.77 35.30-12.68L35.30-12.68L35.30-12.68Q35.30-6.43 31.94-2.81L31.94-2.81L31.94-2.81Q28.66 0.78 23.05 0.78ZM24.06-16.18L24.06-16.18L24.06-16.18Q23.59-15.13 23.22-13.55L23.22-13.55L23.22-13.55Q22.85-11.97 22.39-9.48L22.39-9.48L22.39-9.48Q21.92-6.98 21.92-3.90L21.92-3.90L21.92-3.90Q21.92-2.89 22.25-2.22L22.25-2.22L22.25-2.22Q22.58-1.56 23.48-1.56L23.48-1.56L23.48-1.56Q24.38-1.56 24.94-1.99L24.94-1.99L24.94-1.99Q25.51-2.42 25.94-3.43L25.94-3.43L25.94-3.43Q26.71-5.23 27.34-8.56L27.34-8.56L27.34-8.56Q27.96-11.89 28.02-13.34L28.02-13.34L28.02-13.34Q28.08-14.78 28.08-15.85L28.08-15.85L28.08-15.85Q28.08-16.93 27.77-17.63L27.77-17.63L27.77-17.63Q27.46-18.33 26.58-18.33L26.58-18.33L26.58-18.33Q25.70-18.33 25.12-17.78L25.12-17.78L25.12-17.78Q24.53-17.24 24.06-16.18ZM37.09-1.87L37.09-1.87L41.92-27.30L49.84-28.08L48.63-22.11L48.63-22.11Q48.20-20.28 47.66-18.99L47.66-18.99L47.66-18.99Q48.52-20.09 50.39-20.51L50.39-20.51L50.39-20.51Q50.93-20.67 51.60-20.67L51.60-20.67L51.60-20.67Q55.22-20.67 57.21-18.47L57.21-18.47L57.21-18.47Q59.20-16.26 59.20-12.01L59.20-12.01L59.20-12.01Q59.20-6.47 56.04-3.00L56.04-3.00L56.04-3.00Q52.65 0.78 46.49 0.78L46.49 0.78L46.49 0.78Q42.24 0.78 39.04-0.62L39.04-0.62L39.04-0.62Q37.91-1.13 37.09-1.87ZM46.99-13.65L44.93-2.22L44.93-2.22Q45.75-1.52 46.76-1.52L46.76-1.52L46.76-1.52Q47.77-1.52 48.36-1.91L48.36-1.91L48.36-1.91Q48.95-2.30 49.37-3.08L49.37-3.08L49.37-3.08Q50.54-5.19 51.48-11.62L51.48-11.62L51.48-11.62Q51.75-13.46 51.75-15.29L51.75-15.29L51.75-15.29Q51.75-17.12 51.34-17.71L51.34-17.71L51.34-17.71Q50.93-18.29 50.15-18.29L50.15-18.29L50.15-18.29Q47.77-18.29 46.99-13.65L46.99-13.65Z" fill="url(#editing-sticker-gradient)" stroke="#000" stroke-width="1"></path></g></g><style>text {
  font-size: 64px;
  font-family: Arial Black;
  dominant-baseline: central;
  text-anchor: middle;
}</style></svg>