<?xml version="1.0" encoding="utf-8"?>
<!-- Generator: Adobe Illustrator 16.0.0, SVG Export Plug-In . SVG Version: 6.00 Build 0)  -->
<!DOCTYPE svg PUBLIC "-//W3C//DTD SVG 1.1//EN" "http://www.w3.org/Graphics/SVG/1.1/DTD/svg11.dtd">
<svg version="1.1" id="Layer_1" xmlns="http://www.w3.org/2000/svg" xmlns:xlink="http://www.w3.org/1999/xlink" x="0px" y="0px"
	 width="138px" height="50px" viewBox="0 0 138 50" enable-background="new 0 0 138 50" xml:space="preserve">
<g>
	<g>
		<defs>
			<path id="SVGID_1_" d="M100.734,18.577h4.154c0-7.984,6.494-14.479,14.479-14.479c7.982,0,14.479,6.495,14.479,14.479
				c0,7.604-5.895,13.854-13.354,14.431l-1.125,4.202c10.272,0,18.632-8.358,18.632-18.633c0-10.275-8.359-18.633-18.632-18.633
				C109.093-0.056,100.734,8.302,100.734,18.577"/>
		</defs>
		<clipPath id="SVGID_2_">
			<use xlink:href="#SVGID_1_"  overflow="visible"/>
		</clipPath>
		
			<linearGradient id="SVGID_3_" gradientUnits="userSpaceOnUse" x1="-170.8511" y1="266.0215" x2="-170.5071" y2="266.0215" gradientTransform="matrix(0 -98.0188 -98.0188 0 26194.4902 -16709.5586)">
			<stop  offset="0" style="stop-color:#F1BD1C"/>
			<stop  offset="0.0931" style="stop-color:#F2C51B"/>
			<stop  offset="0.4015" style="stop-color:#F4D91A"/>
			<stop  offset="0.706" style="stop-color:#F5E619"/>
			<stop  offset="1" style="stop-color:#F5EA19"/>
		</linearGradient>
		<rect x="100.734" y="-0.056" clip-path="url(#SVGID_2_)" fill="url(#SVGID_3_)" width="37.266" height="37.266"/>
	</g>
	<g>
		<defs>
			<polygon id="SVGID_4_" points="119.206,17.785 112.507,14.253 119.368,20.623 128.189,11.293 			"/>
		</defs>
		<clipPath id="SVGID_5_">
			<use xlink:href="#SVGID_4_"  overflow="visible"/>
		</clipPath>
		
			<linearGradient id="SVGID_6_" gradientUnits="userSpaceOnUse" x1="-170.8516" y1="266.042" x2="-170.507" y2="266.042" gradientTransform="matrix(0 -98.0188 -98.0188 0 26197.4902 -16709.5586)">
			<stop  offset="0" style="stop-color:#F1BD1C"/>
			<stop  offset="0.0931" style="stop-color:#F2C51B"/>
			<stop  offset="0.4015" style="stop-color:#F4D91A"/>
			<stop  offset="0.706" style="stop-color:#F5E619"/>
			<stop  offset="1" style="stop-color:#F5EA19"/>
		</linearGradient>
		<rect x="112.507" y="11.293" clip-path="url(#SVGID_5_)" fill="url(#SVGID_6_)" width="15.683" height="9.33"/>
	</g>
	<g>
		<path fill="#5E5F5E" d="M19.222,40.744c0.57-0.382,1.269-0.57,2.098-0.57c1.274,0,2.027,0.521,2.256,1.566
			c0.03,0.116-0.03,0.205-0.183,0.266l-0.354,0.142c-0.122,0.048-0.201,0.018-0.24-0.09c-0.189-0.79-0.746-1.182-1.668-1.182
			c-1.25,0-1.993,0.447-2.233,1.343c-0.125,0.469,0.002,0.809,0.379,1.018c0.244,0.13,0.701,0.234,1.371,0.314
			c0.782,0.097,1.322,0.246,1.62,0.449c0.46,0.313,0.593,0.828,0.4,1.549c-0.181,0.669-0.555,1.192-1.122,1.566
			c-0.584,0.38-1.323,0.569-2.22,0.569c-1.378,0-2.142-0.583-2.289-1.752c-0.007-0.128,0.059-0.219,0.195-0.273l0.346-0.11
			c0.126-0.041,0.203,0,0.232,0.122c0.136,0.88,0.704,1.322,1.701,1.322c1.351,0,2.152-0.476,2.406-1.427
			c0.126-0.467,0.013-0.799-0.343-0.996c-0.228-0.136-0.658-0.238-1.291-0.305c-0.823-0.095-1.389-0.242-1.696-0.439
			c-0.5-0.311-0.65-0.834-0.454-1.566C18.305,41.622,18.667,41.116,19.222,40.744"/>
		<path fill="#5E5F5E" d="M24.051,44.031c0.156-0.583,0.479-1.041,0.97-1.376c0.48-0.33,1.069-0.498,1.762-0.498
			c0.698,0,1.203,0.168,1.515,0.498c0.311,0.335,0.388,0.793,0.232,1.376l-0.48,1.791c-0.156,0.583-0.479,1.037-0.966,1.364
			c-0.489,0.332-1.084,0.498-1.782,0.498c-0.691,0-1.189-0.166-1.495-0.498c-0.311-0.333-0.391-0.787-0.236-1.364L24.051,44.031z
			 M27.837,44.031c0.104-0.388,0.046-0.692-0.172-0.917c-0.218-0.223-0.567-0.337-1.051-0.337c-0.474,0-0.878,0.114-1.208,0.337
			c-0.346,0.225-0.57,0.529-0.674,0.917l-0.479,1.791c-0.104,0.386-0.043,0.688,0.185,0.905c0.219,0.225,0.562,0.337,1.028,0.337
			c0.482,0,0.893-0.112,1.23-0.337c0.336-0.217,0.557-0.52,0.661-0.905L27.837,44.031z M27.374,40.174
			c0.122,0,0.223,0.053,0.304,0.161l0.959,1.091c0.062,0.1,0.017,0.151-0.133,0.151H28.22c-0.137,0-0.226-0.033-0.268-0.101
			l-0.751-0.847l-1.215,0.847c-0.092,0.067-0.199,0.101-0.322,0.101H25.4c-0.149,0-0.167-0.052-0.052-0.151l1.544-1.091
			c0.131-0.108,0.268-0.161,0.411-0.161H27.374z M28.281,38.383c0.179-0.083,0.294-0.079,0.345,0.01l0.104,0.183
			c0.054,0.101,0.024,0.174-0.089,0.215l-2.045,0.944c-0.122,0.05-0.202,0.046-0.241-0.01l-0.059-0.122
			c-0.045-0.088-0.019-0.155,0.074-0.202L28.281,38.383z"/>
		<path fill="#5E5F5E" d="M32.46,42.157c1.352,0,1.848,0.666,1.492,1.996l-0.859,3.206c-0.032,0.122-0.11,0.184-0.232,0.184h-0.315
			c-0.122,0-0.167-0.062-0.134-0.184l0.853-3.187c0.248-0.923-0.104-1.384-1.053-1.384c-0.482,0-0.953,0.075-1.414,0.225
			c-0.115,0.047-0.188,0.132-0.221,0.254l-1.097,4.092c-0.033,0.122-0.11,0.184-0.231,0.184h-0.326
			c-0.123,0-0.167-0.062-0.135-0.184l1.15-4.297c0.072-0.264,0.25-0.45,0.537-0.559C31.1,42.273,31.763,42.157,32.46,42.157"/>
		<path fill="#5E5F5E" d="M35.056,44.244c0.374-1.39,1.292-2.087,2.759-2.087c0.657,0,1.204,0.103,1.638,0.306
			c0.144,0.076,0.231,0.144,0.262,0.204c0.029,0.067,0.021,0.188-0.024,0.356l-1.296,4.834c-0.392,1.467-1.305,2.198-2.736,2.198
			c-0.95,0-1.524-0.362-1.723-1.088c-0.055-0.13-0.003-0.23,0.152-0.306l0.255-0.112c0.139-0.068,0.231-0.045,0.275,0.071
			c0.146,0.543,0.542,0.814,1.186,0.814c0.991,0,1.625-0.516,1.9-1.547l0.169-0.632c-0.603,0.203-1.167,0.306-1.689,0.306
			c-1.343,0-1.838-0.661-1.483-1.984L35.056,44.244z M37.686,42.789c-1.031,0-1.677,0.488-1.938,1.467l-0.35,1.301
			c-0.245,0.917,0.1,1.376,1.036,1.376c0.495,0,1.03-0.099,1.606-0.296l0.907-3.389c0.033-0.122-0.008-0.211-0.122-0.266
			C38.513,42.854,38.134,42.789,37.686,42.789"/>
		<path fill="#5E5F5E" d="M44.747,41.089c0.122,0,0.167,0.061,0.134,0.183l-0.277,1.04h1.476c0.122,0,0.167,0.061,0.134,0.183
			l-0.071,0.266c-0.032,0.12-0.109,0.182-0.232,0.182h-1.475l-0.71,2.646c-0.157,0.591-0.158,0.984-0.001,1.181
			c0.143,0.178,0.499,0.265,1.07,0.265c0.122,0,0.165,0.064,0.132,0.192l-0.075,0.275c-0.032,0.122-0.11,0.184-0.231,0.184
			c-0.798,0.014-1.313-0.126-1.548-0.418c-0.239-0.297-0.25-0.852-0.033-1.659l0.714-2.666h-0.967c-0.122,0-0.166-0.062-0.134-0.182
			l0.07-0.266c0.033-0.122,0.11-0.183,0.232-0.183h0.967l0.278-1.04c0.033-0.122,0.111-0.183,0.233-0.183H44.747z"/>
		<path fill="#5E5F5E" d="M49.61,42.157c0.122,0,0.168,0.062,0.135,0.184l-0.071,0.266c-0.032,0.122-0.11,0.183-0.231,0.183h-0.337
			c-0.509,0-0.975,0.071-1.401,0.215c-0.128,0.047-0.208,0.134-0.242,0.264l-1.097,4.092c-0.032,0.122-0.11,0.184-0.232,0.184
			h-0.326c-0.122,0-0.167-0.062-0.133-0.184l1.155-4.316c0.072-0.271,0.253-0.46,0.54-0.57c0.568-0.195,1.21-0.302,1.927-0.315
			H49.61z"/>
		<path fill="#5E5F5E" d="M49.799,44.305c0.181-0.677,0.513-1.204,0.993-1.576c0.487-0.38,1.099-0.571,1.832-0.571
			c0.739,0,1.253,0.197,1.541,0.591c0.273,0.374,0.325,0.88,0.153,1.518l-0.149,0.559c-0.051,0.191-0.178,0.286-0.382,0.286h-3.522
			l-0.157,0.59c-0.25,0.929,0.135,1.394,1.152,1.394c0.754,0,1.362-0.281,1.825-0.845c0.109-0.107,0.214-0.132,0.313-0.07
			l0.184,0.112c0.111,0.066,0.108,0.167-0.008,0.295c-0.603,0.732-1.428,1.099-2.473,1.099c-0.739,0-1.249-0.189-1.526-0.569
			c-0.258-0.354-0.301-0.848-0.131-1.485L49.799,44.305z M53.647,44.225c0.264-0.984-0.13-1.477-1.182-1.477
			c-0.509,0-0.937,0.132-1.277,0.397c-0.334,0.258-0.563,0.618-0.687,1.079l-0.095,0.355h3.145L53.647,44.225z M53.191,40.265
			c0.109,0,0.206,0.055,0.293,0.163l0.935,1.068c0.061,0.103,0.017,0.153-0.133,0.153h-0.273c-0.13,0-0.22-0.033-0.27-0.102
			l-0.734-0.825l-1.188,0.825c-0.086,0.068-0.19,0.102-0.313,0.102h-0.255c-0.148,0-0.165-0.051-0.05-0.153l1.508-1.068
			c0.137-0.108,0.271-0.163,0.399-0.163H53.191z"/>
		<path fill="#5E5F5E" d="M58.222,42.157c1.35,0,1.848,0.666,1.49,1.996l-0.857,3.206c-0.034,0.122-0.111,0.184-0.234,0.184h-0.315
			c-0.121,0-0.166-0.062-0.134-0.184l0.854-3.187c0.248-0.923-0.104-1.384-1.053-1.384c-0.482,0-0.954,0.075-1.414,0.225
			c-0.115,0.047-0.188,0.132-0.222,0.254l-1.096,4.092c-0.033,0.122-0.109,0.184-0.232,0.184h-0.325
			c-0.123,0-0.167-0.062-0.135-0.184l1.151-4.297c0.071-0.264,0.249-0.45,0.536-0.559C56.86,42.273,57.522,42.157,58.222,42.157"/>
		<path fill="#5E5F5E" d="M69.128,40.886c0.088,0,0.118,0.048,0.093,0.143l-0.043,0.163c-0.025,0.095-0.082,0.142-0.171,0.142
			h-0.682l-1.473,5.497c-0.068,0.258-0.255,0.44-0.554,0.549c-0.537,0.203-1.151,0.306-1.843,0.306c-1.425,0-1.956-0.68-1.593-2.035
			l0.39-1.455c0.363-1.352,1.215-2.027,2.558-2.027c0.536,0,1.043,0.097,1.522,0.286l0.301-1.12h-1.548
			c-0.088,0-0.12-0.047-0.094-0.142l0.044-0.163c0.024-0.095,0.081-0.143,0.17-0.143h1.546l0.187-0.692
			c0.033-0.122,0.11-0.183,0.231-0.183h0.326c0.122,0,0.168,0.061,0.134,0.183l-0.185,0.692H69.128z M67.162,43.095
			c-0.47-0.203-0.938-0.306-1.405-0.306c-0.964,0-1.572,0.475-1.827,1.425l-0.381,1.426c-0.255,0.95,0.124,1.425,1.134,1.425
			c0.461,0,0.889-0.065,1.283-0.193c0.136-0.047,0.22-0.136,0.254-0.266L67.162,43.095z"/>
		<path fill="#5E5F5E" d="M73.209,43.96l-0.759,2.829c-0.071,0.266-0.249,0.45-0.536,0.561c-0.604,0.225-1.267,0.335-1.993,0.335
			c-1.343,0-1.838-0.662-1.483-1.984l0.859-3.206c0.033-0.122,0.109-0.183,0.232-0.183h0.315c0.121,0,0.167,0.061,0.134,0.183
			l-0.851,3.177c-0.249,0.927,0.102,1.394,1.051,1.394c0.509,0,0.97-0.075,1.383-0.225c0.137-0.053,0.224-0.149,0.26-0.285
			l1.088-4.061c0.033-0.122,0.11-0.183,0.232-0.183h0.325c0.123,0,0.167,0.061,0.135,0.183l-0.234,0.876
			c0.113-0.069,0.22-0.153,0.322-0.256c0.175-0.197,0.28-0.409,0.314-0.642c0.013-0.101,0.08-0.155,0.197-0.161h0.254
			c0.102,0,0.14,0.051,0.112,0.151c-0.066,0.347-0.232,0.663-0.498,0.946C73.835,43.647,73.55,43.831,73.209,43.96"/>
		<path fill="#5E5F5E" d="M79.273,43.816c-0.013,0.069-0.027,0.14-0.048,0.215l-0.479,1.791c-0.157,0.583-0.478,1.037-0.966,1.364
			c-0.489,0.332-1.084,0.498-1.782,0.498c-0.692,0-1.191-0.166-1.496-0.498c-0.311-0.333-0.389-0.787-0.234-1.364l0.48-1.791
			c0.156-0.583,0.479-1.041,0.969-1.376c0.481-0.33,1.069-0.498,1.761-0.498c0.699,0,1.205,0.168,1.516,0.498
			c0.158,0.172,0.255,0.368,0.291,0.593c0.052-0.041,0.103-0.087,0.156-0.134c0.175-0.197,0.279-0.409,0.314-0.642
			c0.013-0.101,0.079-0.155,0.197-0.161h0.255c0.102,0,0.139,0.051,0.111,0.151c-0.066,0.347-0.232,0.663-0.498,0.946
			C79.662,43.572,79.478,43.709,79.273,43.816 M78.535,44.031c0.104-0.388,0.044-0.692-0.174-0.917
			c-0.218-0.223-0.567-0.337-1.049-0.337c-0.477,0-0.879,0.114-1.21,0.337c-0.345,0.225-0.569,0.529-0.674,0.917l-0.479,1.791
			c-0.104,0.386-0.043,0.688,0.184,0.905c0.219,0.225,0.562,0.337,1.029,0.337c0.482,0,0.892-0.112,1.231-0.337
			c0.335-0.217,0.556-0.52,0.659-0.905L78.535,44.031z M76.656,40.174c0.101-0.095,0.214-0.099,0.339-0.01l1.376,1.018
			c0.068,0.047,0.058,0.114-0.034,0.202l-0.134,0.122c-0.063,0.056-0.142,0.058-0.237,0.01l-1.539-0.944
			c-0.089-0.041-0.08-0.114,0.027-0.215L76.656,40.174z"/>
		<path fill="#5E5F5E" d="M83.412,42.157c1.352,0,1.847,0.666,1.491,1.996l-0.859,3.206c-0.032,0.122-0.11,0.184-0.232,0.184h-0.314
			c-0.123,0-0.168-0.062-0.136-0.184l0.854-3.187c0.247-0.923-0.104-1.384-1.054-1.384c-0.481,0-0.952,0.075-1.414,0.225
			c-0.113,0.047-0.188,0.132-0.22,0.254l-1.097,4.092c-0.033,0.122-0.109,0.184-0.232,0.184h-0.326
			c-0.121,0-0.167-0.062-0.134-0.184l1.15-4.297c0.072-0.264,0.25-0.45,0.538-0.559C82.051,42.273,82.713,42.157,83.412,42.157"/>
		<path fill="#5E5F5E" d="M86.008,44.244c0.373-1.39,1.292-2.087,2.758-2.087c0.658,0,1.204,0.103,1.639,0.306
			c0.143,0.076,0.23,0.144,0.261,0.204c0.029,0.067,0.021,0.188-0.023,0.356l-1.296,4.834c-0.394,1.467-1.306,2.198-2.736,2.198
			c-0.951,0-1.525-0.362-1.725-1.088c-0.054-0.13-0.002-0.23,0.153-0.306l0.254-0.112c0.141-0.068,0.231-0.045,0.276,0.071
			c0.146,0.543,0.542,0.814,1.187,0.814c0.991,0,1.624-0.516,1.9-1.547l0.169-0.632c-0.604,0.203-1.168,0.306-1.69,0.306
			c-1.344,0-1.838-0.661-1.483-1.984L86.008,44.244z M88.638,42.789c-1.032,0-1.678,0.488-1.939,1.467l-0.35,1.301
			c-0.246,0.917,0.101,1.376,1.036,1.376c0.495,0,1.031-0.099,1.607-0.296l0.906-3.389c0.033-0.122-0.008-0.211-0.122-0.266
			C89.465,42.854,89.085,42.789,88.638,42.789"/>
		<path fill="#5E5F5E" d="M96.766,42.157c1.412,0,1.936,0.68,1.572,2.037l-0.393,1.465c-0.362,1.35-1.239,2.025-2.63,2.025
			c-0.44,0-0.919-0.116-1.434-0.347L93.276,49.6c-0.032,0.122-0.111,0.183-0.232,0.183h-0.326c-0.121,0-0.167-0.061-0.134-0.183
			l1.762-6.576c0.072-0.271,0.26-0.462,0.56-0.57C95.454,42.256,96.073,42.157,96.766,42.157 M97.65,44.214
			c0.254-0.95-0.123-1.425-1.134-1.425c-0.456,0-0.881,0.065-1.274,0.193c-0.145,0.055-0.232,0.146-0.268,0.275l-0.925,3.45
			c0.433,0.238,0.893,0.356,1.381,0.356c0.971,0,1.583-0.475,1.837-1.425L97.65,44.214z"/>
		<path fill="#5E5F5E" d="M100.531,42.312c0.122,0,0.166,0.061,0.134,0.183l-1.304,4.865c-0.031,0.122-0.11,0.184-0.232,0.184
			h-0.324c-0.123,0-0.168-0.062-0.135-0.184l1.305-4.865c0.031-0.122,0.109-0.183,0.23-0.183H100.531z M100.9,40.438
			c0.251,0,0.344,0.126,0.277,0.378l-0.021,0.07c-0.067,0.25-0.227,0.376-0.478,0.376h-0.062c-0.251,0-0.343-0.126-0.274-0.376
			l0.02-0.07c0.065-0.252,0.225-0.378,0.477-0.378H100.9z"/>
		<path fill="#5E5F5E" d="M103.414,41.089c0.121,0,0.167,0.061,0.134,0.183l-0.28,1.04h1.478c0.123,0,0.166,0.061,0.134,0.183
			l-0.07,0.266c-0.034,0.12-0.111,0.182-0.232,0.182H103.1l-0.707,2.646c-0.161,0.591-0.161,0.984-0.002,1.181
			c0.143,0.178,0.5,0.265,1.068,0.265c0.122,0,0.166,0.064,0.133,0.192l-0.075,0.275c-0.032,0.122-0.109,0.184-0.231,0.184
			c-0.798,0.014-1.313-0.126-1.549-0.418c-0.238-0.297-0.248-0.852-0.033-1.659l0.715-2.666h-0.967
			c-0.123,0-0.167-0.062-0.135-0.182l0.072-0.266c0.031-0.122,0.109-0.183,0.232-0.183h0.966l0.278-1.04
			c0.034-0.122,0.11-0.183,0.232-0.183H103.414z"/>
		<path fill="#5E5F5E" d="M105.042,44.163c0.17-0.63,0.484-1.12,0.942-1.466c0.477-0.358,1.08-0.54,1.814-0.54
			c1.14,0,1.726,0.459,1.759,1.376c0.006,0.128-0.059,0.217-0.193,0.264l-0.289,0.091c-0.133,0.041-0.207,0-0.221-0.122
			c-0.033-0.665-0.445-0.996-1.239-0.996c-1.012,0-1.64,0.457-1.886,1.374l-0.417,1.557c-0.246,0.923,0.133,1.384,1.146,1.384
			c0.795,0,1.393-0.349,1.798-1.047c0.077-0.116,0.178-0.157,0.298-0.122l0.242,0.08c0.116,0.048,0.134,0.137,0.05,0.265
			c-0.565,0.95-1.422,1.425-2.569,1.425c-0.712,0-1.21-0.18-1.494-0.54c-0.267-0.346-0.314-0.834-0.146-1.464L105.042,44.163z"/>
		<path fill="#5E5F5E" d="M112.078,40.011c0.122,0,0.167,0.061,0.135,0.183l-0.603,2.25c0.472-0.189,1.029-0.286,1.675-0.286
			c1.35,0,1.847,0.666,1.49,1.996l-0.859,3.206c-0.032,0.122-0.109,0.184-0.232,0.184h-0.326c-0.12,0-0.167-0.062-0.134-0.184
			l0.854-3.187c0.246-0.923-0.104-1.384-1.054-1.384c-0.611,0-1.14,0.099-1.586,0.296l-1.146,4.274
			c-0.033,0.122-0.11,0.184-0.232,0.184h-0.315c-0.122,0-0.167-0.062-0.134-0.184l1.919-7.166c0.033-0.122,0.11-0.183,0.232-0.183
			H112.078z"/>
	</g>
	<g>
		<defs>
			<path id="SVGID_7_" d="M5.838,30.802h1.51c1.008,0,1.664,0.124,1.971,0.373c0.299,0.271,0.367,0.717,0.199,1.34
				c-0.154,0.573-0.469,0.979-0.945,1.213c-0.469,0.257-1.193,0.384-2.172,0.384H4.952L5.838,30.802z M62.547,25.454h0.691
				c1.622,0,2.714,0.34,3.275,1.022c0.562,0.682,0.651,1.738,0.267,3.171c-0.385,1.441-1.039,2.491-1.961,3.151
				C63.9,33.475,62.627,33.813,61,33.813h-0.693l0.585-2.183h2.038h0.776l-0.175-2.25l-0.071-0.927h-1.719L62.547,25.454z
				 M7.381,25.05H8.27c1,0,1.661,0.121,1.982,0.36c0.289,0.234,0.357,0.636,0.205,1.207c-0.146,0.543-0.44,0.933-0.882,1.165
				c-0.432,0.221-1.16,0.33-2.188,0.33H6.559L7.381,25.05z M15.138,29.669c0.824-3.077,4.032-5.571,7.164-5.571
				c1.018,0,1.9,0.264,2.603,0.725l-0.951,2.018l1.541,2.45l1.153-0.517c-0.03,0.291-0.084,0.59-0.166,0.895
				c-0.355,1.329-1.157,2.55-2.206,3.508l-0.147-1.578h-2.671l-1.223,2.301l1.293,0.942c-0.719,0.256-1.467,0.397-2.211,0.397
				c-0.966,0-1.811-0.238-2.494-0.655l0.544-1.12l-1.473-2.66l-0.947,0.155C14.958,30.545,15.019,30.113,15.138,29.669
				 M79.221,22.06h-2.338H75.97l-5.385,8.785c0.152-0.388,0.286-0.787,0.397-1.201c0.356-1.33,0.429-2.524,0.214-3.579
				c-0.208-1.048-0.708-1.903-1.495-2.566c-0.593-0.517-1.35-0.885-2.269-1.106c-0.887-0.221-2.521-0.333-4.908-0.333h-3.155
				l-1.728,6.446h-7.716l-0.814,3.037h3.929c-0.314,0.806-0.882,1.456-1.7,1.948c-0.794,0.502-1.694,0.754-2.704,0.754
				c-1.188,0-2.009-0.394-2.465-1.177c-0.461-0.793-0.506-1.882-0.135-3.266c0.369-1.379,0.994-2.457,1.877-3.235
				c0.876-0.785,1.908-1.179,3.095-1.179c0.627,0,1.164,0.137,1.613,0.407c0.434,0.276,0.779,0.695,1.038,1.256l3.863-1.642
				c-0.14-0.362-0.312-0.7-0.516-1.01c-0.203-0.309-0.441-0.592-0.713-0.846c-0.271-0.253-0.559-0.466-0.862-0.638
				c-0.941-0.567-2.118-0.85-3.528-0.85c-1.081,0-2.144,0.181-3.191,0.543c-1.062,0.371-2.034,0.904-2.921,1.604
				c-0.932,0.745-1.7,1.563-2.309,2.453c-0.054,0.081-0.104,0.163-0.157,0.246l1.3-4.852h-3.962l-2.003,7.481
				c-0.103,0.379-0.199,0.815-0.291,1.313c-0.071,0.317-0.161,0.873-0.271,1.666c-0.111-0.587-0.235-1.155-0.37-1.708
				c-0.106-0.427-0.203-0.747-0.29-0.961l-3.633-7.791h-3.984l-1.155,4.314c-0.172-0.763-0.49-1.456-0.955-2.081
				c-0.54-0.725-1.228-1.278-2.062-1.657c-0.835-0.379-1.775-0.569-2.823-0.569c-1.049,0-2.085,0.188-3.107,0.564
				c-1.052,0.383-2.037,0.937-2.956,1.662c-0.895,0.679-1.674,1.497-2.338,2.454c-0.646,0.937-1.105,1.909-1.375,2.919
				c-0.053,0.196-0.097,0.392-0.133,0.586c-0.016-0.027-0.028-0.057-0.045-0.085c-0.458-0.661-1.199-1.035-2.226-1.117
				c1.028-0.261,1.828-0.642,2.401-1.142c0.571-0.5,0.976-1.188,1.209-2.062c0.185-0.689,0.198-1.296,0.043-1.819
				c-0.165-0.496-0.478-0.906-0.943-1.229c-0.431-0.277-0.966-0.467-1.607-0.572C11.06,22.117,9.881,22.06,8.21,22.06H4.058
				L0,37.206h4.277c1.678,0,2.938-0.056,3.784-0.166c0.824-0.146,1.514-0.344,2.063-0.6c0.715-0.325,1.329-0.804,1.844-1.439
				c0.453-0.545,0.789-1.166,1.008-1.859c0.184,0.72,0.484,1.352,0.907,1.896c0.517,0.704,1.206,1.253,2.071,1.641
				c0.878,0.391,1.811,0.585,2.8,0.585c0.975,0,2.012-0.194,3.112-0.585c1.051-0.382,2.041-0.929,2.971-1.641
				c0.807-0.628,1.491-1.315,2.059-2.06l-1.132,4.229h3.982l2.003-7.48c0.062-0.228,0.165-0.665,0.312-1.313
				c0.094-0.58,0.177-1.139,0.253-1.676c0.122,0.675,0.248,1.233,0.378,1.676c0.139,0.537,0.235,0.861,0.288,0.972l3.624,7.821
				h3.964l1.308-4.884c0.009,0.101,0.018,0.201,0.031,0.3c0.119,0.931,0.432,1.747,0.934,2.454c0.529,0.732,1.202,1.271,2.018,1.622
				c0.85,0.35,1.845,0.523,2.985,0.523c2.391,0,4.431-0.688,6.119-2.066c1.382-1.128,2.42-2.646,3.116-4.551l-1.768,6.602h3.154
				h0.694c1.999,0,3.484-0.114,4.456-0.343c0.964-0.199,1.895-0.559,2.792-1.075c0.869-0.512,1.626-1.126,2.277-1.843l-1.999,3.261
				h4.107l1.512-2.711l1.68-2.948l2.86-4.997c0.146-0.28,0.311-0.578,0.495-0.896l0.076,2.155l0.038,0.965l0.113,2.772l0.053,1.951
				h-1.459h-1.187h-0.04h-0.684l-2.063,3.708h0.765h4.731h2.555h1.553L80.668,22.72l-0.051-0.66H79.221z"/>
		</defs>
		<clipPath id="SVGID_8_">
			<use xlink:href="#SVGID_7_"  overflow="visible"/>
		</clipPath>
		
			<linearGradient id="SVGID_9_" gradientUnits="userSpaceOnUse" x1="-170.6362" y1="263.8086" x2="-170.2921" y2="263.8086" gradientTransform="matrix(0 -41.2635 -41.2635 0 10926.5078 -7003.7417)">
			<stop  offset="0" style="stop-color:#19AF4B"/>
			<stop  offset="1" style="stop-color:#8CC441"/>
		</linearGradient>
		<rect y="22.06" clip-path="url(#SVGID_8_)" fill="url(#SVGID_9_)" width="81.793" height="15.203"/>
	</g>
	<g>
		<defs>
			<polygon id="SVGID_10_" points="17.048,27.072 17.434,29.372 20.432,29.498 21.487,26.896 19.269,25.145 			"/>
		</defs>
		<clipPath id="SVGID_11_">
			<use xlink:href="#SVGID_10_"  overflow="visible"/>
		</clipPath>
		
			<linearGradient id="SVGID_12_" gradientUnits="userSpaceOnUse" x1="-170.6362" y1="262.8096" x2="-170.2917" y2="262.8096" gradientTransform="matrix(0 -41.2635 -41.2635 0 10863.6953 -7003.7417)">
			<stop  offset="0" style="stop-color:#19AF4B"/>
			<stop  offset="1" style="stop-color:#8CC441"/>
		</linearGradient>
		<rect x="17.048" y="25.145" clip-path="url(#SVGID_11_)" fill="url(#SVGID_12_)" width="4.439" height="4.354"/>
	</g>
	<g>
		<defs>
			<path id="SVGID_13_" d="M98.521,26.612c0.502-0.586,0.789-0.925,0.861-1.014c0.217-0.251,0.428-0.529,0.639-0.828
				c-0.081,0.176-0.154,0.384-0.22,0.632c-0.127,0.372-0.235,0.721-0.321,1.045l-1.181,4.406h-3.696L98.521,26.612z M114.842,22.06
				l-1.577,5.886h-5.514l1.577-5.886H105.2l-2.357,8.793h-1.072l2.334-8.71h-4.708l-7.97,8.71l-2.719,2.969h2.941h5.871
				l-0.908,3.384h3.456l0.906-3.384l1.07,0.014l-0.902,3.37h4.127l1.652-6.167h5.514l-1.652,6.167h4.127l4.059-15.146H114.842z"/>
		</defs>
		<clipPath id="SVGID_14_">
			<use xlink:href="#SVGID_13_"  overflow="visible"/>
		</clipPath>
		
			<linearGradient id="SVGID_15_" gradientUnits="userSpaceOnUse" x1="-170.8516" y1="265.7207" x2="-170.5077" y2="265.7207" gradientTransform="matrix(0 -98.0188 -98.0188 0 26149.4902 -16709.5586)">
			<stop  offset="0" style="stop-color:#F1BD1C"/>
			<stop  offset="0.0931" style="stop-color:#F2C51B"/>
			<stop  offset="0.4015" style="stop-color:#F4D91A"/>
			<stop  offset="0.706" style="stop-color:#F5E619"/>
			<stop  offset="1" style="stop-color:#F5EA19"/>
		</linearGradient>
		<rect x="88.708" y="22.06" clip-path="url(#SVGID_14_)" fill="url(#SVGID_15_)" width="30.261" height="15.146"/>
	</g>
	<g>
		<defs>
			<path id="SVGID_16_" d="M85.016,23.375c-1.273,0.992-2.137,2.341-2.595,4.045l-0.027,0.103h3.642l0.051-0.187
				c0.209-0.779,0.548-1.38,1.021-1.8c0.447-0.413,0.997-0.62,1.644-0.62c0.532,0,0.934,0.162,1.205,0.486
				c0.231,0.345,0.276,0.781,0.134,1.313c-0.085,0.325-0.284,0.694-0.596,1.106c-0.261,0.36-0.686,0.805-1.267,1.337l-5.728,5.146
				l-3.228,2.901h3.453h1.059h8.403l0.688-2.566h-6.189l0.596-0.652l0.756-0.826l4.651-5.08c1.035-1.191,1.182-1.62,1.256-2.088
				c0.167-1.138-0.077-2.07-0.728-2.795c-0.766-0.875-1.997-1.313-3.693-1.313C87.77,21.885,86.268,22.381,85.016,23.375"/>
		</defs>
		<clipPath id="SVGID_17_">
			<use xlink:href="#SVGID_16_"  overflow="visible"/>
		</clipPath>
		
			<linearGradient id="SVGID_18_" gradientUnits="userSpaceOnUse" x1="-170.8516" y1="265.3857" x2="-170.5075" y2="265.3857" gradientTransform="matrix(0 -98.0188 -98.0188 0 26099.4902 -16709.5586)">
			<stop  offset="0" style="stop-color:#F1BD1C"/>
			<stop  offset="0.0931" style="stop-color:#F2C51B"/>
			<stop  offset="0.4015" style="stop-color:#F4D91A"/>
			<stop  offset="0.706" style="stop-color:#F5E619"/>
			<stop  offset="1" style="stop-color:#F5EA19"/>
		</linearGradient>
		<rect x="79.271" y="21.885" clip-path="url(#SVGID_17_)" fill="url(#SVGID_18_)" width="14.839" height="15.321"/>
	</g>
</g>
</svg>
